# xmcd CD database file
#
# Track frame offsets:
#	187
#	21730
#	42847
#	59222
#	75512
#	100537
#	113965
#	129540
#	150545
#	166890
#
# Disc length: 2438 seconds
#
# Revision: 0
# Processed by: cddbd v1.5.1PL0 Copyright (c) Steve Scherf et al.
# Submitted via: CDex 1.51
#
DISCID=7e09840a
DTITLE=ビートたけし - おれに歌わせろ
DYEAR=1994
DGENRE=J-Pop
TTITLE0=BIGな気分で唄わせろ
TTITLE1=夜につまずき
TTITLE2=ハード・レインで愛はズブヌレ
TTITLE3=いじけ　いじけて
TTITLE4=CITY BIRD
TTITLE5=信じあうことは
TTITLE6=暗い部屋で
TTITLE7=ニヒルの革命
TTITLE8=おれが武だ
TTITLE9=チャリ茶
EXTD=YEAR: 1994
EXTT0=
EXTT1=
EXTT2=
EXTT3=
EXTT4=
EXTT5=
EXTT6=
EXTT7=
EXTT8=
EXTT9=
PLAYORDER=
